<svg width="38" height="19" viewBox="0 0 38 19" fill="none" xmlns="http://www.w3.org/2000/svg">
<path d="M0.619873 5.59991C0.909873 4.91991 1.43988 4.68991 2.15988 4.71991C3.18988 4.75991 4.21988 4.71991 5.27988 4.71991C5.27988 4.00991 5.27988 3.33991 5.27988 2.65991C5.27988 0.999912 6.20987 0.0599365 7.86987 0.0599365C17.0199 0.0599365 26.1699 0.0599365 35.3199 0.0599365C36.9799 0.0599365 37.9099 0.999912 37.9099 2.65991C37.9099 7.13991 37.9099 11.6199 37.9099 16.0999C37.9099 17.7799 36.9799 18.71 35.2999 18.71C26.1699 18.71 17.0499 18.71 7.91989 18.71C6.21989 18.71 5.28989 17.7699 5.28989 16.0699C5.28989 15.4099 5.28989 14.7599 5.28989 14.0499H4.92987C4.00987 14.0499 3.07988 14.0199 2.15988 14.0499C1.43988 14.0799 0.909873 13.8499 0.619873 13.1699V5.59991ZM23.9299 14.0499V9.36993H30.7299C30.7299 9.36993 30.7299 9.33995 30.7299 9.31995C26.9199 7.79995 23.1099 6.26992 19.2499 4.72992V9.40991H12.4499C12.4499 9.40991 12.4499 9.43996 12.4499 9.45996C16.2599 10.98 20.0699 12.5099 23.9299 14.0499Z" fill="black"/>
</svg>
