<svg width="32" height="25" viewBox="0 0 32 25" fill="none" xmlns="http://www.w3.org/2000/svg">
<path d="M0.830078 6.89991C0.960078 6.48991 1.22015 6.16991 1.53015 5.86991C4.58015 2.95991 8.16009 1.03991 12.3401 0.339915C19.3701 -0.840085 25.4701 1.06992 30.6101 5.99992C30.8801 6.25992 31.0502 6.56991 31.1802 6.89991V7.48991C31.1202 7.50991 31.1301 7.5699 31.1101 7.6099C30.6801 8.7499 29.4402 9.04992 28.5602 8.18992C27.2702 6.92992 25.8401 5.84992 24.2301 5.02992C21.0901 3.40992 17.7601 2.74992 14.2501 3.09992C10.0801 3.51992 6.49012 5.21991 3.50012 8.14991C2.61012 9.01991 1.4401 8.71992 0.980103 7.80992C0.920103 7.68992 0.880078 7.55991 0.830078 7.42991C0.830078 7.24991 0.830078 7.07991 0.830078 6.89991Z" fill="#15b6e8"/>
<path d="M16.6398 6.05005C20.0598 6.11005 23.4699 7.51005 26.2899 10.33C26.7099 10.75 26.8898 11.2601 26.7098 11.8401C26.5198 12.4201 26.1198 12.7801 25.5098 12.9101C25.0098 13.0101 24.5798 12.8401 24.2098 12.5001C23.3998 11.7401 22.5199 11.0901 21.5399 10.5601C17.1599 8.20006 11.6998 8.93007 8.10982 12.3501C7.61982 12.8201 7.08987 13.1001 6.40987 12.8401C5.32987 12.4401 5.04983 11.1801 5.86983 10.3401C7.05983 9.11006 8.43982 8.13006 9.98982 7.41006C11.9198 6.51006 13.9499 6.06005 16.6499 6.05005H16.6398Z" fill="#15b6e8"/>
<path d="M9.93994 16.8201C9.93994 16.4601 10.08 16.0901 10.38 15.7701C13.55 12.2701 18.94 12.2801 22.11 15.7901C22.55 16.2801 22.65 16.8501 22.42 17.4701C22.21 18.0501 21.78 18.3801 21.17 18.4701C20.67 18.5401 20.27 18.3401 19.92 18.0001C19.14 17.2401 18.22 16.7301 17.14 16.5401C15.41 16.2301 13.9 16.6901 12.64 17.9201C12.26 18.2901 11.85 18.5501 11.3 18.4801C10.5 18.3801 9.94994 17.7301 9.93994 16.8301V16.8201Z" fill="#15b6e8"/>
<path d="M19.03 21.9601C19.03 23.5501 17.75 24.8301 16.15 24.8301C14.56 24.8301 13.27 23.5501 13.27 21.9601C13.27 20.3701 14.56 19.0901 16.15 19.0901C17.74 19.0901 19.03 20.3701 19.03 21.9601Z" fill="#15b6e8"/>
</svg>
