<svg width="107" height="95" viewBox="0 0 107 95" fill="none" xmlns="http://www.w3.org/2000/svg">
<path d="M74.5 0.109985H33.27C29.08 0.109985 25.2 2.34999 23.1 5.97999L2.48003 41.69C0.380029 45.32 0.380029 49.8 2.48003 53.43L23.1 89.14C25.2 92.77 29.07 95.01 33.27 95.01H74.5C78.69 95.01 82.57 92.77 84.67 89.14L105.29 53.43C107.39 49.8 107.39 45.32 105.29 41.69L84.67 5.97999C82.57 2.34999 78.7 0.109985 74.5 0.109985Z" fill="#097EC6"/>
<path d="M79.8401 35.16C78.9601 35 78.0801 34.85 77.2001 34.7C76.4701 34.58 76.1201 34.77 75.8101 35.45C75.5401 36.05 75.2801 36.65 74.9901 37.29C74.6801 37 74.5401 36.65 74.4001 36.32C73.5801 34.41 72.8101 32.49 71.9601 30.59C71.1001 28.67 69.6101 27.43 67.5301 27.04C64.4601 26.46 61.3401 26.22 58.2201 26.07C52.6101 25.82 47.0101 26.09 41.4401 26.8C38.4901 27.18 36.4701 28.58 35.4101 31.38C34.7601 33.1 33.9901 34.77 33.2701 36.46C33.1501 36.74 33.0301 37.02 32.7601 37.25C32.4601 36.59 32.1801 35.94 31.8801 35.3C31.6101 34.75 31.2201 34.55 30.6401 34.66C29.7401 34.81 28.8401 34.97 27.9401 35.14C27.1701 35.28 26.8401 35.67 26.8201 36.44C26.7901 37.42 27.0601 37.82 27.8901 38.02C29.1501 38.32 30.4201 38.61 31.7401 38.92C31.1101 39.88 30.5101 40.8 29.9101 41.71C28.8501 43.32 28.3201 45.1 28.3401 47.03C28.3401 49.19 28.3601 51.34 28.3301 53.5C28.3301 54.01 28.4801 54.08 28.9401 54.08C34.8801 54.06 40.8201 54.07 46.7601 54.07C57.4701 54.07 68.1801 54.07 78.8801 54.08C79.3401 54.08 79.4501 53.97 79.4501 53.51C79.4201 51.48 79.4101 49.45 79.4501 47.42C79.5001 45.19 78.9201 43.18 77.6401 41.34C77.0901 40.55 76.5801 39.73 76.0401 38.89C77.3801 38.58 78.6701 38.3 79.9701 37.99C80.7301 37.81 81.0001 37.36 80.9601 36.4C80.9401 35.65 80.6001 35.25 79.8701 35.12L79.8401 35.16ZM37.6901 30.76C38.4901 29.32 39.8901 28.81 41.4701 28.59C47.1301 27.8 52.8201 27.58 58.5201 27.85C61.3501 27.98 64.1601 28.27 66.9601 28.71C68.3301 28.93 69.4501 29.62 70.1101 30.85C70.9901 32.5 71.6001 34.28 72.3801 36.04H35.3601C36.1601 34.26 36.7501 32.44 37.6801 30.77L37.6901 30.76ZM37.6201 48.95C36.4901 48.79 35.3501 48.53 34.2101 48.47C32.2701 48.36 31.9101 47.01 32.0901 45.54C32.2201 44.49 32.6201 44.22 33.6801 44.31C35.1201 44.44 36.5501 44.5 37.9901 44.69C38.2601 44.73 38.4901 44.79 38.6601 45.01C39.7101 46.37 40.4701 47.89 41.3601 49.46C40.0501 49.28 38.8401 49.12 37.6301 48.95H37.6201ZM63.0901 49.93C63.0001 50.11 62.8701 50.15 62.6901 50.15C59.5401 50.28 56.3901 50.66 53.2301 50.6C50.5301 50.54 47.8401 50.32 45.1401 50.17C44.9401 50.17 44.7601 50.17 44.6501 49.93C43.9401 48.38 43.2001 46.84 42.4201 45.18C50.0901 46.13 57.6601 46.13 65.3201 45.18C64.5301 46.84 63.8001 48.39 63.0801 49.93H63.0901ZM75.4601 47.39C75.2601 47.89 74.8601 48.25 74.3301 48.33C71.7401 48.73 69.1501 49.1 66.4001 49.5C67.2801 47.91 68.0401 46.43 69.0501 45.09C69.2201 44.86 69.4501 44.74 69.7401 44.71C71.3101 44.5 72.9001 44.43 74.4801 44.3C74.9801 44.26 75.3201 44.48 75.5001 44.95C75.8101 45.77 75.7901 46.6 75.4601 47.4V47.39Z" fill="white"/>
<path d="M53.88 55.84C62.19 55.84 70.51 55.84 78.82 55.83C79.33 55.83 79.45 55.97 79.44 56.46C79.42 57.4 79.35 58.32 78.95 59.18C78.15 60.91 76.69 61.74 74.88 62.03C74.36 62.12 73.83 62.14 73.3 62.14C60.36 62.14 47.42 62.14 34.49 62.14C33.55 62.14 32.63 62.06 31.74 61.75C29.61 61.01 28.41 59.3 28.35 56.95C28.3366 56.21 28.7 55.84 29.44 55.84H53.89H53.88Z" fill="white"/>
<path d="M79.4001 61.64C79.4001 63.29 79.4201 64.8 79.4001 66.31C79.3901 67.06 78.8901 67.51 78.1201 67.51C76.6601 67.52 75.2001 67.51 73.7401 67.51C72.9501 67.51 72.4901 67.05 72.4501 66.26C72.4301 65.64 72.4701 65.02 72.4301 64.4C72.4101 64 72.5001 63.86 72.9301 63.88C74.1201 63.94 75.2901 63.88 76.4401 63.47C77.5201 63.09 78.4701 62.5 79.3901 61.63L79.4001 61.64Z" fill="white"/>
<path d="M28.3301 61.6C29.4801 62.7 30.7501 63.4 32.2201 63.73C33.0701 63.92 33.9201 63.92 34.7801 63.88C35.1801 63.86 35.2701 64 35.2501 64.37C35.2201 64.97 35.2501 65.57 35.2501 66.18C35.2501 67.04 34.7801 67.51 33.9401 67.52C32.5001 67.52 31.0601 67.52 29.6101 67.52C28.9301 67.52 28.3701 67.13 28.3501 66.55C28.3101 64.94 28.3401 63.32 28.3401 61.61L28.3301 61.6Z" fill="white"/>
<path d="M59.29 17.27C61.5 16.72 62.82 15.39 63.37 13.19C63.92 15.37 65.23 16.73 67.45 17.27C65.24 17.82 63.9 19.17 63.37 21.38C62.83 19.17 61.53 17.8 59.29 17.28V17.27Z" fill="white"/>
<path d="M80.78 17.27C79.14 17.69 78.11 18.67 77.77 20.46C77.38 19.64 77.2 18.89 76.64 18.34C76.09 17.79 75.36 17.6 74.53 17.23C76.29 16.87 77.28 15.86 77.7 14.22C78.13 15.85 79.12 16.86 80.78 17.28V17.27Z" fill="white"/>
<path d="M72.2301 19.67C72.6501 21.32 73.6601 22.31 75.3201 22.71C73.6701 23.14 72.6301 24.11 72.2401 25.79C71.8101 24.13 70.8101 23.1 69.1301 22.72C70.7601 22.3 71.8101 21.33 72.2301 19.66V19.67Z" fill="white"/>
</svg>
