<svg width="33" height="21" viewBox="0 0 33 21" fill="none" xmlns="http://www.w3.org/2000/svg">
<path d="M0.75 9.34995C0.91 8.97995 0.90999 8.56996 0.98999 8.16996C1.85999 4.14996 5.15997 0.979956 9.21997 0.259956C9.86997 0.139956 10.5299 0.0799421 11.1899 0.0899421C12.7099 0.0899421 14.23 0.0899421 15.75 0.0899421C15.98 0.0899421 16.07 0.169941 16.14 0.369941C17.59 4.19994 18.17 8.15995 17.92 12.2499C17.74 15.0899 17.15 17.84 16.13 20.51C16.06 20.69 15.99 20.7699 15.78 20.7699C14.21 20.7599 12.6301 20.78 11.0601 20.76C6.60006 20.7 2.73002 17.8899 1.27002 13.6799C1.05002 13.0299 0.910059 12.3699 0.810059 11.6899C0.810059 11.6299 0.83999 11.5399 0.73999 11.4999V11.2499C0.78999 11.1899 0.78999 11.1199 0.73999 11.0599V9.85993C0.73999 9.85993 0.77999 9.77996 0.73999 9.72996V9.34995H0.75Z" fill="#15b6e8"/>
<path d="M18.1599 20.7399C20.5799 13.8399 20.5799 6.96989 18.1599 0.0898937C18.9799 0.0898937 19.7798 0.0798937 20.5698 0.0898937C21.0098 0.0998937 21.3098 0.349886 21.4598 0.769886C22.0198 2.32989 22.4499 3.9199 22.7299 5.5599C23.0899 7.6699 23.2199 9.78991 23.1099 11.9199C22.9599 14.7099 22.4098 17.4199 21.4598 20.0499C21.3098 20.4799 20.9999 20.7299 20.5399 20.7299C19.7499 20.7399 18.9699 20.7299 18.1499 20.7299L18.1599 20.7399Z" fill="#15b6e8"/>
<path d="M29.1399 8.34988C28.2199 8.34988 27.2899 8.34988 26.3699 8.34988C25.7599 8.34988 25.3198 7.93988 25.3198 7.37988C25.3198 6.81988 25.7599 6.38989 26.3599 6.38989C28.2299 6.38989 30.0998 6.38989 31.9598 6.38989C32.4698 6.38989 32.8599 6.69988 32.9799 7.15988C33.0799 7.57988 32.8598 8.03988 32.4698 8.24988C32.2998 8.33988 32.1099 8.34988 31.9199 8.34988C30.9999 8.34988 30.0699 8.34988 29.1499 8.34988H29.1399Z" fill="#15b6e8"/>
<path d="M29.18 12.48C30.08 12.48 30.98 12.48 31.89 12.48C32.56 12.48 33 12.87 33 13.45C33 14.03 32.55 14.44 31.9 14.44C30.05 14.44 28.21 14.44 26.36 14.44C25.82 14.44 25.4199 14.1 25.3299 13.6C25.2599 13.17 25.5199 12.72 25.9499 12.54C26.0999 12.48 26.26 12.48 26.41 12.48C27.33 12.48 28.26 12.48 29.18 12.48Z" fill="#15b6e8"/>
<path d="M27.8099 2.28983C26.8699 2.28983 25.9198 2.28983 24.9798 2.28983C24.4698 2.28983 24.0698 1.94981 23.9898 1.48981C23.9098 1.00981 24.1398 0.579832 24.5798 0.389832C24.7298 0.319832 24.8899 0.319824 25.0399 0.319824C26.8799 0.319824 28.7099 0.319824 30.5499 0.319824C31.2099 0.319824 31.6499 0.719814 31.6399 1.30981C31.6399 1.87981 31.1899 2.27982 30.5499 2.27982C29.6399 2.27982 28.7199 2.27982 27.8099 2.27982V2.28983Z" fill="#15b6e8"/>
<path d="M27.8 20.5198C26.89 20.5198 25.9701 20.5198 25.0601 20.5198C24.4001 20.5198 23.96 20.1198 23.96 19.5298C23.96 18.9498 24.4099 18.5498 25.0699 18.5498C26.9099 18.5498 28.74 18.5498 30.58 18.5498C31.06 18.5498 31.43 18.7998 31.58 19.2198C31.72 19.6098 31.58 20.0598 31.24 20.3198C31.03 20.4798 30.79 20.5198 30.53 20.5198C29.62 20.5198 28.7 20.5198 27.79 20.5198H27.8Z" fill="#15b6e8"/>
</svg>
