<?xml version="1.0" encoding="UTF-8"?>
<svg id="Layer_2" data-name="Layer 2" xmlns="http://www.w3.org/2000/svg" xmlns:xlink="http://www.w3.org/1999/xlink" viewBox="0 0 316.58 409.49">
  <defs>
    <style>
      .cls-1 {
        fill: #848484;
      }

      .cls-1, .cls-2, .cls-3, .cls-4, .cls-5, .cls-6 {
        stroke-width: 0px;
      }

      .cls-3 {
        fill: none;
      }

      .cls-4 {
        fill: url(#Degradado_sin_nombre_28);
      }

      .cls-5 {
        fill: #15aed1;
      }

      .cls-7 {
        fill: #afafaf;
        stroke: #fff;
        stroke-miterlimit: 10;
        stroke-width: 1.25px;
      }

      .cls-6 {
        fill: #fff;
      }

      .cls-8 {
        clip-path: url(#clippath);
      }

      .cls-9 {
        font-family: Raleway-SemiBold, Raleway;
        font-size: 25.33px;
        font-weight: 600;
      }
    </style>
    <clipPath id="clippath">
      <rect class="cls-3" x=".62" y=".58" width="315.32" height="340.54"/>
    </clipPath>
    <linearGradient id="Degradado_sin_nombre_28" data-name="Degradado sin nombre 28" x1="132.54" y1="47.5" x2="144.71" y2="52.81" gradientUnits="userSpaceOnUse">
      <stop offset="0" stop-color="#f1b172"/>
      <stop offset="1" stop-color="#ed1638"/>
    </linearGradient>
  </defs>
  <g id="Layer_1-2" data-name="Layer 1">
    <g>
      <path class="cls-7" d="m.62.62h315.21c.07,0,.12.05.12.12v341H.62V.62h0Z"/>
      <g class="cls-8">
        <path class="cls-6" d="m439.38,181.69l-2.24-3.61-39.95,22.56c-5.8-4.88-27.02-22.75-28.83-24.04-1.88-1.34-49.33-31.21-57.01-36.04,14.91-21.03,15.62-47.4,15.64-48.85v-.29s-.07-.28-.07-.28c-.38-1.39-9.57-34.19-22.77-48.35-3.44-3.69-4.04-12.41-1.75-24.65l34.98,4.73,96.67,26.68,2.14-7.05-96.93-26.75-35.29-4.79c5.22-20.93,15.6-42.01,18.79-43.52,7.32-3.03,53.15-28.98,55.1-30.08l-2.25-3.6c-.47.27-47.54,26.92-54.6,29.84-5.99,2.48-16.67,27.64-21.42,46.77l-6.54-.89c5.19-21.06,15.67-42.38,18.89-43.9,7.32-3.03,53.15-28.98,55.1-30.08l-2.25-3.6c-.47.27-47.54,26.92-54.6,29.84-6.03,2.49-16.81,27.98-21.51,47.15l-22.22-3.02-35.64,12.03-35.78-1.46-21.16-13.62c-12.63-8.11-27.11-17.43-41.46-26.7l13.14-8.66,53.77-77.32-1.98-15.9-7.64.87,1.65,13.23-51.39,73.9-14.37,9.48c-33.68-21.77-64.85-42.1-67.3-44.21.03.03.29.26.55.66l-6.61,3.76c.68,1.09,1.22,1.96,59.72,39.82,2.69,1.74,5.37,3.48,8.04,5.2l-40.28,49.52-45.28,26.5c-5.95-5.27-11.56-10.14-16.55-14.46-2.38-2.07-4.67-4.05-6.77-5.89L53.2-2.19l.22-.18,19.61-27.49-15.47-11.03-2.64,3.36,12.1,8.63-9.26,12.98-9.01-11.24-3.5,2.54,9.9,12.35-5.06,7.09-1.54,1.27-12.55-19.95-3.77,2.15L45.19-1.12,7.83,29.75c-3.68-3.26-6.41-5.8-7.47-7.08C-7.49,13.13-24.19-14.87-24.36-15.15l-8.61,4.65c.7,1.18,17.23,28.9,25.54,38.99,2.4,2.92,8.86,8.52,18.62,16.99,4.26,3.7,9.17,7.95,14.45,12.62l-43.13,25.24-6.85,8.29c-13.73-21.24-23.6-36.23-24.52-36.88l-2.63,3.36c-.16-.11-.25-.21-.26-.22,1.2,1.35,11.23,16.7,24.5,37.26l-17.75,21.48-15.71,6.49,1.75,3.85,8.22-3.4-32.61,39.46,6.05,4.54,41.44-50.15,17.08-7.06.95-.59c12.47,19.39,26.42,41.19,38.26,59.74l-19.81,4.9-87.45,57.83,4.39,6.03,32.31-21.36,23.25,37.63,12.25,22.67-43.41,7.22c-1.49-3.54-5.29-12.48-9.29-21.37-10.81-24.01-12.43-24.29-14-24.56l-.78,4.13c-.43-.07-.66-.26-.66-.27,2.28,1.94,11.92,22.86,20.32,42.81l-29.42,4.89.76,4.13,29.93-4.98,3.8,19.9,23.13,16.49-20.78,74.86,4.25,1.07,20.52-73.94,59.63,22.57-1.52,8.01-54.04,108.62,3.98,1.8,54.29-109.13,1.46-7.73,28.95,10.96c-23.7,35.01-57.72,92.38-59.65,95.64l3.83,2.06c.63-1.06,61.32-103.4,77.28-119.14-7.61,13.31-13.36,24.24-16.61,32.27-23.05,35.04-51.9,83.67-53.67,86.67l3.83,2.06c.39-.67,24.72-41.68,46.62-75.81-.38,3.95-.87,8.03-1.36,12.01-2.21,18.03-4.29,35.06,2.93,44.97,8.07,11.09,50.41,55.44,52.21,57.32l7.32-6.35c-.44-.46-43.7-45.77-51.4-56.35-5.09-6.98-3.13-23-1.23-38.5.61-4.95,1.23-10.06,1.64-14.96.5-6.04,8.65-21.78,18.99-39.82.98-1.09,1.84-1.97,2.57-2.59,10.24-8.66,48.9-41.88,76.71-67.38,1.59,3.59,2.63,6.35,2.97,8.02,1.09,5.46-6.47,36.14-12.55,60.79-12.71,51.55-18.25,76.63-14.11,83.91,1.34,2.35,4.76,7.77,9.41,14.96l-35.36,35.51,3.19,2.89,34.56-34.7c9.48,14.6,22.79,34.76,34.17,51.92-2.76,2.87-4.5,4.65-4.95,5.01.04-.03.07-.05.1-.07l2.51,3.44c.36-.24,2.06-1.93,4.77-4.74,10.8,16.28,19.35,29.1,20.28,30.49l8.35-5.06c-.24-.36-9.8-14.69-21.71-32.66,15.4-16.22,42.83-45.61,63.12-67.41l44.15,37.69c-14.37,15.85-36.59,39.94-39.17,41.59,0,0,.15-.09.39-.16l1.24,4.02c.98-.27,2.09-.58,22.54-22.69,7.65-8.27,15.19-16.56,18.28-19.97l55.56,47.44,2.94-3.12-32.88-28.08,33.24-31.24,19.17,17.12,4.51-4.59-48.74-43.53-.15-.13-28.84-20.04,15.4-14.87,53.58,49.57,3.06-3.01-56.71-52.47-18.93,18.28h-.02s-30.24-33.24-30.24-33.24l21.34-12.56,23.2.81,13.59-6.38h0s0,0,0,0l14.01-6.58,41.09,24.73,2.35-3.54-43.17-25.98-9.98,4.69,45.25-70.48c8.96,22.19,17.61,43.09,17.7,43.32l4.09-1.54c-.1-.24-10.07-24.34-19.69-48.26-13.78-34.25-17.25-44.28-18.04-47.17l18.29-10.33,20.25,63.27,4.21-1.22-20.57-64.25,39.84-22.5Zm-46.17,21.2l-45.45,25.66-18.87-23.39,24.19-7.65,8.48-20.22c2.37,1.51,3.88,2.48,4.16,2.68,1.3.93,16.38,13.57,27.49,22.93Zm-35.39-27.98l-8.07,19.24-28.12,8.9,22.32,27.67-5.74,3.24h0s-22.48,12.69-22.48,12.69l-.41.23-7.44,10.25-17.55,6.33-3.89,2.27-28.44-80.91c12.03-11.05,24.17-20.88,34.46-26.83,6.63-3.83,11.98-8.69,16.3-14.03,11.88,7.48,36.4,22.92,49.06,30.95Zm-169.63,85.15c6.59-6.38,11.4-11.4,13.3-14.13,6.35-9.16,29.12-35.43,53.02-57.86l28.09,79.91-66.23,38.69-28.17-46.6Zm-153.22,60.49l-32.22-16.86,2.51-6.05,31.49,13.56-1.77,9.34Zm2.96-15.63l-.39,2.04-30.68-13.21,2.75-6.64,29,4.99-.68,12.82Zm-24.13-27.9c10.13.7,21.18,2.17,25.42,3.66l-.38,7.2-27.57-4.75,2.53-6.11Zm13.41-2.9c-4.78-.6-9.5-1-12.26-1.21l4.84-25.51,21,4.03-1.33,24.96c-2.6-.77-6.46-1.54-12.24-2.27Zm22.32-104.23l60.02-14.83c1.03,1.91,2.05,3.81,3.04,5.7l-1.08,8.83-34.65,30.12c-11.76-1.64-24.54-3.58-28.68-4.48l1.35-25.35Zm1.92-46.48c-.08-.1-8.33-9.79-16.65-19.28-4.89-5.58-8.85-10.01-11.77-13.16-1.66-1.79-2.92-3.11-3.91-4.09l22.79-14.12c22.12,20.42,46.32,45.02,58.75,66.42,1.79,3.07,3.53,6.14,5.23,9.2l-55.95,13.83,2.04-38.17-.53-.62Zm206.71-45.84c-5.05-.58-16.71-1.94-19.69-2.36-.27-.35-.63-.93-1.04-1.69l23.6-18.5-2.88,22.55Zm-20.99,1.68c2.05.35,17.63,2.15,20.46,2.48l-2.83,22.17-9.46,7.11-8.29-7.75-42.02,19.21-8.33-11.76,5.41-1.64,41.91-32.86c1.7,2.79,2.53,2.94,3.15,3.05Zm-80.54,65.69l16.91,20.02-5.51,4.14-19.01-19.32,7.61-4.85Zm20.36,17.43l-16.46-19.49,32.98-15.07,10.24,14.46-26.76,20.11Zm-21-22.06l-32.28,20.56c-1.69-3.28-3.43-6.57-5.19-9.83l53.29-35.82,10.52-3.19,8.69,12.27-35.03,16.02Zm-10.68,11.84l19.25,19.56-26.07,19.59c-.57-.98-1.02-1.76-1.34-2.3-3.44-7.89-7.34-16.1-11.5-24.33l19.66-12.52Zm22.27,22.63l.82.83.13.13,46.22,33.51c-13.23,14.15-23.74,26.7-27.76,32.5-1.8,2.6-6.5,7.48-12.97,13.72-10.69-20.94-26.12-47.92-33.37-60.45l26.93-20.24Zm50.11,31.34l-46.21-33.51-.43-.44,52.71-39.61,25.82,42.5c-10.96,9.7-22.06,20.7-31.88,31.06Zm-10.48-66.46l-9.69-13.69,38.66-17.67,5.69,5.32-34.65,26.04Zm-18.85-37.16l-6.15,1.87-11.88-16.77c18.79-9.95,38.61-20.42,55.69-29.4,1.82,4.72,3.32,8.37,4.58,11.19l-42.24,33.11Zm-10.52,3.19l-9.5,2.88-53.42,35.91c-1.85-3.33-3.73-6.63-5.61-9.87-2.02-3.48-4.32-7.02-6.83-10.58,7.32-4.22,33.96-18.47,63.99-34.39l11.37,16.05Zm-15.2-18.82c-43.49,23.06-57.78,30.88-62.64,33.72-4.92-6.66-10.54-13.41-16.58-20.09l55.88-49.21,24.69,34.86c-.45.24-.9.48-1.36.72Zm-46.48,80.81c4.57,9.01,8.67,17.7,12.17,25.8l-8.5,15.39-7.31,38.58-6.61,3.84,10.25-83.61Zm35.36,66.46c5.61,10.2,10.9,20.08,15.07,28.36-14.94,13.96-35.26,31.95-52.5,46.98,1.72-2.84,3.41-5.63,5.05-8.32,19.11-31.49,30.89-51.15,32.25-58.31.46-2.42.48-5.35.13-8.71Zm24.51,25.32c7.27-6.98,12.6-12.49,14.62-15.41,7.03-10.15,34.18-41.25,60.71-64.91l1.59,4.52c-24.75,23.03-48.59,50.48-55.15,59.94-2.38,3.43-9.79,10.83-19.69,20.1-.66-1.37-1.36-2.79-2.09-4.24Zm124.81-213.9c11.87,12.74,20.78,43.06,21.72,46.35-.15,3.83-2.47,45.18-32.4,62.48-10.1,5.84-21.92,15.33-33.71,26.05l-1.55-4.41c9.42-8.17,18.64-15.24,26.72-19.92,33.29-19.25,34.49-64.36,34.52-66.28v-.29s-.07-.28-.07-.28c-.38-1.39-9.57-34.19-22.77-48.35-3.4-3.65-4.03-12.22-1.83-24.26l6.54.88c-2.58,13.8-1.64,23.23,2.83,28.02Zm-215.94-13.56l41.44-50.94c23.09,14.91,42.98,27.69,43.21,27.84l22.96,14.78,39.45,1.61,35.27-11.91,19.89,2.69c-2.49,13.6-1.53,22.88,2.9,27.64,11.87,12.74,20.78,43.06,21.72,46.35-.15,3.83-2.47,45.18-32.4,62.48-8.02,4.64-17.14,11.58-26.46,19.62l-25.65-42.22,31.7-23.83,7.02-54.96,1.31-1.03,2.99-15.76-7.58-1.3-2.49,13.11-26.03,20.4c-1.61-3.7-3.37-8.06-4.9-12.11l-.87-2.31-2.26,1.19c-.3.16-28.61,15.05-58.28,30.77l-27.77-39.21-59.55,52.43c-12.8-13.86-27.14-27.36-40.32-39.18l44.68-26.15ZM-12.29,88.9l43.77-25.62c2.35,2.1,4.75,4.27,7.19,6.49l-55.09,34.12c-1.23-1.9-2.44-3.78-3.62-5.62l7.75-9.38Zm-8.57,17.74l-9.26,3.83,7.17-8.67c.93,1.45,1.87,2.91,2.83,4.39l-.74.46Zm6.74.83l29.48-18.26c4.43,4.08,21.36,23.54,32.15,36.21l-2.02,37.88-20.61,5.09C11.9,148.05-1.96,126.37-14.12,107.47Zm59.2,63.52l-4.06,76.21-23-4.41-16.44,3.28,11.47-33.34-11.98-29.69,2.82-1.87,41.2-10.18Zm-47.74,14.51l11.03,27.34-11.77,34.22-20.46,4.08-22.65-36.65L-2.66,185.49Zm-19.02,69.49l36.95-7.37-4.82,25.4-20.55,3.42-11.59-21.44Zm-35.18,33.47l42.91-7.13-2.92,17.88-15.45,22.51-21.06-15.01-3.48-18.25Zm28.41,35.28l15.77-22.99,3.29-20.18,18.24-3.03-11.63,28.06,36.91,19.31-3.98,21.02-58.61-22.19Zm70.73-18.2l1.35-25.33,1.17-.46c-.2-.46-.51-.92-1.07-1.39l1.6-30,.07-.32h-.05s.69-12.85.69-12.85l29.93,4.8.73-4.13-30.43-4.88,1.68-31.5c4.15.94,12.48,2.2,29.31,4.53l1.03.14,32.44-28.21-9.64,78.65-49.25,71.31-5.3,26.22-12.21-4.62,7.96-41.96Zm39.74,31.61c-3.51,2.97-9.69,11.15-17.1,21.93l-14.22-5.38,5.29-26.19,48.78-70.64,11.73-6.82,7.54-39.79,6.45-11.68c8.2,19.78,12.51,35.45,11.15,42.6-1.12,5.9-17.03,32.13-31.07,55.27-7.36,12.13-14.13,23.35-20.08,33.48-3.7,3.18-6.62,5.67-8.47,7.23Zm18.12-4.36c2.22-3.77,4.49-7.58,6.75-11.35,18.47-16,43.61-38.07,61.69-54.93.72,1.46,1.39,2.85,2.01,4.17-23.21,21.3-54.84,48.72-70.46,62.11Zm57.38,90.29c-.37-.99-1.12-5.79,3.27-27.26,2.8-13.68,6.87-30.34,10.9-46.7l27.93,4.81.78-4.13-27.7-4.77c8.65-35.1,13.87-56.98,12.46-64-.55-2.74-2.42-7.42-5.12-13.25,1.13-1.06,2.24-2.09,3.31-3.1l31.74,52.51,20.93,3.6,20.69,22.74-91.47,91.85c-3.79-5.88-6.55-10.27-7.71-12.3Zm83.57-57.78l40.87,39.6c-4.79,5.15-9.88,10.62-15.11,16.25l-43.97-37.55,18.22-18.3Zm-39.44,125.52c-11.62-17.54-24.96-37.75-34.02-51.75l52.22-52.44,44.08,37.64c-22.86,24.55-47.9,51.35-62.28,66.54Zm109.69-87.26l32.72,22.74,26.21,23.41-33.31,31.3-66.83-57.07c6.7-7.2,12.46-13.39,16.49-17.73l1.36-1.46-43.85-42.49,15.48-15.55,51.49,56.58.25.27Zm-47-61.24l16.56-14.05,22,22.3-20.22,11.9-18.33-20.14Zm64.84,7.38l-21.86-.77-26.16-26.51-19.71,16.73-21.98-24.16-20.2-3.48-.73-1.21,73.72-43.07,18.44-6.65,7.68-10.57,21.6-12.19,28.77,62.72-28.11,43.77-11.46,5.38Zm62.09-84.31s.01.03.02.05l-19.74,30.75-27.76-60.52,29.63-16.73c.17.55.37,1.14.59,1.78.88,2.61,2.25,6.39,4.09,11.23,3.08,8.13,7.52,19.38,13.17,33.44Zm-15.18-47.96h0s0,0,0,0c0,0,0,0,0,0Zm-118.62,64.09l-3.73,2.22-17.34-26.41,3.73-2.22,17.34,26.41Zm39.63-147.56l-23.02-20.71,9.14-23.25,4.12,1.47-8.12,20.64,20.9,18.8-3.02,3.05Z"/>
        <polygon class="cls-1" points="237.13 319.2 217.63 315.97 186.39 264.07 175.73 271.88 110.62 151.77 170.61 110.49 179.46 107.25 139.08 52.18 141.76 50.4 184.52 108.72 172.17 113.24 114.8 152.73 176.83 267.15 187.36 259.44 219.7 313.15 237.69 316.14 237.13 319.2"/>
        <path class="cls-2" d="m140.78,23.39c-4.74,0-8.59,4-8.59,8.93s8.64,14.21,8.59,14.21,8.59-9.28,8.59-14.21-3.84-8.93-8.59-8.93Zm.05,12.58c-2.03,0-3.67-1.71-3.67-3.82s1.64-3.82,3.67-3.82,3.67,1.71,3.67,3.82-1.64,3.82-3.67,3.82Z"/>
        <path class="cls-4" d="m144.5,51.29c0,1.72-1.46,3.11-3.26,3.11s-3.26-1.39-3.26-3.11,1.46-3.11,3.26-3.11,3.26,1.39,3.26,3.11Z"/>
      </g>
      <rect class="cls-5" x=".44" y="339.85" width="315.22" height="69.65"/>
      <text class="cls-9" transform="translate(37.25 382.02)"><tspan x="0" y="0">Max. Speed Limit 80</tspan></text>
    </g>
    <path class="cls-2" d="m232.93,314.9c.88.13,1.76.27,2.64.4,1.31.2,2.62.4,3.93.61,1.32.21,2.65.4,3.97.63,1.14.2,2.3.34,3.44.52,1.3.2,2.59.41,3.89.61,1.32.2,2.64.39,3.96.59.58.09,1.16.17,1.74.26.41.07.71.45.72.86,0,.32-.29.66-.63.78-.65.23-1.29.48-1.94.71-.58.21-1.17.4-1.75.61-.84.3-1.68.6-2.52.91-.63.23-1.27.45-1.9.67-.94.33-1.88.66-2.82.99-.14.05-.17.12-.16.25.06.94.13,1.89.18,2.83.05.86.07,1.72.13,2.58.06.89.11,1.78.17,2.67.04.67.09,1.35.11,2.03.01.53.06,1.05.07,1.58,0,.39-.23.73-.54.84-.35.11-.75-.03-.97-.38-.56-.89-1.12-1.78-1.67-2.67-.61-.99-1.23-1.98-1.84-2.98-.7-1.14-1.39-2.28-2.1-3.42-.64-1.04-1.3-2.07-1.94-3.11-.5-.81-.99-1.62-1.49-2.42-.65-1.02-1.26-2.07-1.89-3.1-.53-.86-1.07-1.71-1.61-2.56-.18-.29-.19-.61-.02-.89.18-.3.47-.47.85-.4Z"/>
  </g>
</svg>