<svg width="16" height="17" viewBox="0 0 16 17" fill="none" xmlns="http://www.w3.org/2000/svg">
<path d="M1.01998 17C0.729979 16.87 0.649994 16.64 0.659994 16.33C0.719994 13.34 2.9999 10.68 5.9399 10.2C6.3199 10.14 6.69993 10.1 7.08993 10.11C7.73993 10.11 8.39 10.09 9.04 10.11C11.55 10.2 13.3899 11.39 14.5899 13.58C15.0599 14.44 15.27 15.37 15.31 16.35C15.32 16.65 15.2299 16.87 14.9499 17H1.02999H1.01998Z" fill="#097EC6"/>
<path d="M7.97986 9.12997C5.55986 9.12997 3.58984 7.15998 3.58984 4.73997C3.58984 2.31997 5.55986 0.349976 7.97986 0.349976C10.3999 0.349976 12.3699 2.31997 12.3699 4.73997C12.3699 7.15998 10.3999 9.12997 7.97986 9.12997Z" fill="#097EC6"/>
</svg>
